  0
SECTION
  2
HEADER
  9
$ACADVER
  1
AC1014
  9
$HANDSEED
  5
FFFF
  9
$MEASUREMENT
 70
     1
  0
ENDSEC
  0
SECTION
  2
TABLES
  0
TABLE
  2
VPORT
  5
8
330
0
100
AcDbSymbolTable
 70
     4
  0
VPORT
  5
2E
330
8
100
AcDbSymbolTableRecord
100
AcDbViewportTableRecord
  2
*ACTIVE
 70
     0
 10
0.0
 20
0.0
 11
1.0
 21
1.0
 12
210.0
 22
148.5
 13
0.0
 23
0.0
 14
10.0
 24
10.0
 15
10.0
 25
10.0
 16
0.0
 26
0.0
 36
1.0
 17
0.0
 27
0.0
 37
0.0
 40
341.0
 41
1.24
 42
50.0
 43
0.0
 44
0.0
 50
0.0
 51
0.0
 71
     0
 72
   100
 73
     1
 74
     3
 75
     0
 76
     0
 77
     0
 78
     0
  0
ENDTAB
  0
TABLE
  2
LTYPE
  5
5
330
0
100
AcDbSymbolTable
 70
     1
  0
LTYPE
  5
14
330
5
100
AcDbSymbolTableRecord
100
AcDbLinetypeTableRecord
  2
BYBLOCK
 70
     0
  3

 72
    65
 73
     0
 40
0.0
  0
LTYPE
  5
15
330
5
100
AcDbSymbolTableRecord
100
AcDbLinetypeTableRecord
  2
BYLAYER
 70
     0
  3

 72
    65
 73
     0
 40
0.0
  0
LTYPE
  5
16
330
5
100
AcDbSymbolTableRecord
100
AcDbLinetypeTableRecord
  2
CONTINUOUS
 70
     0
  3
Solid line
 72
    65
 73
     0
 40
0.0
  0
ENDTAB
  0
TABLE
  2
LAYER
  5
2
100
AcDbSymbolTable
 70
2
  0
LAYER
  5
50
100
AcDbSymbolTableRecord
100
AcDbLayerTableRecord
  2
0
 70
0
  6
CONTINUOUS
  0
LAYER
  5
51
100
AcDbSymbolTableRecord
100
AcDbLayerTableRecord
  2
Layer_1
 70
0
  6
CONTINUOUS
  0
ENDTAB
  0
TABLE
  2
STYLE
  5
3
330
0
100
AcDbSymbolTable
 70
     1
  0
STYLE
  5
11
330
3
100
AcDbSymbolTableRecord
100
AcDbTextStyleTableRecord
  2
STANDARD
 70
     0
 40
0.0
 41
1.0
 50
0.0
 71
     0
 42
2.5
  3
txt
  4

  0
ENDTAB
  0
TABLE
  2
VIEW
  5
6
330
0
100
AcDbSymbolTable
 70
     0
  0
ENDTAB
  0
TABLE
  2
UCS
  5
7
330
0
100
AcDbSymbolTable
 70
     0
  0
ENDTAB
  0
TABLE
  2
APPID
  5
9
330
0
100
AcDbSymbolTable
 70
     2
  0
APPID
  5
12
330
9
100
AcDbSymbolTableRecord
100
AcDbRegAppTableRecord
  2
ACAD
 70
     0
  0
ENDTAB
  0
TABLE
  2
DIMSTYLE
  5
A
330
0
100
AcDbSymbolTable
 70
     1
  0
DIMSTYLE
105
27
330
A
100
AcDbSymbolTableRecord
100
AcDbDimStyleTableRecord
  2
ISO-25
 70
     0
  3

  4

  5

  6

  7

 40
1.0
 41
2.5
 42
0.625
 43
3.75
 44
1.25
 45
0.0
 46
0.0
 47
0.0
 48
0.0
140
2.5
141
2.5
142
0.0
143
0.03937007874016
144
1.0
145
0.0
146
1.0
147
0.625
 71
     0
 72
     0
 73
     0
 74
     0
 75
     0
 76
     0
 77
     1
 78
     8
170
     0
171
     3
172
     1
173
     0
174
     0
175
     0
176
     0
177
     0
178
     0
270
     2
271
     2
272
     2
273
     2
274
     3
340
11
275
     0
280
     0
281
     0
282
     0
283
     0
284
     8
285
     0
286
     0
287
     3
288
     0
  0
ENDTAB
  0
TABLE
  2
BLOCK_RECORD
  5
1
330
0
100
AcDbSymbolTable
 70
     1
  0
BLOCK_RECORD
  5
1F
330
1
100
AcDbSymbolTableRecord
100
AcDbBlockTableRecord
  2
*MODEL_SPACE
  0
BLOCK_RECORD
  5
1B
330
1
100
AcDbSymbolTableRecord
100
AcDbBlockTableRecord
  2
*PAPER_SPACE
  0
ENDTAB
  0
ENDSEC
  0
SECTION
  2
BLOCKS
  0
BLOCK
  5
20
330
1F
100
AcDbEntity
  8
0
100
AcDbBlockBegin
  2
*MODEL_SPACE
 70
     0
 10
0.0
 20
0.0
 30
0.0
  3
*MODEL_SPACE
  1

  0
ENDBLK
  5
21
330
1F
100
AcDbEntity
  8
0
100
AcDbBlockEnd
  0
BLOCK
  5
1C
330
1B
100
AcDbEntity
 67
     1
  8
0
100
AcDbBlockBegin
  2
*PAPER_SPACE
  1

  0
ENDBLK
  5
1D
330
1B
100
AcDbEntity
 67
     1
  8
0
100
AcDbBlockEnd
  0
ENDSEC
  0
SECTION
  2
ENTITIES
  0
LWPOLYLINE
  5
100
100
AcDbEntity
  8
Layer_1
 62
7
100
AcDbPolyline
 90
4
 70
1
 10
21.166666
 20
268.642853
 30
0.0
 10
101.166666
 20
268.642853
 30
0.0
 10
101.166666
 20
208.642853
 30
0.0
 10
21.166666
 20
208.642853
 30
0.0
  0
LWPOLYLINE
  5
101
100
AcDbEntity
  8
Layer_1
 62
7
100
AcDbPolyline
 90
4
 70
1
 10
31.166332
 20
208.642853
 30
0.0
 10
41.166332
 20
208.642853
 30
0.0
 10
41.166332
 20
205.642853
 30
0.0
 10
31.166332
 20
205.642853
 30
0.0
  0
LWPOLYLINE
  5
102
100
AcDbEntity
  8
Layer_1
 62
7
100
AcDbPolyline
 90
4
 70
1
 10
51.166664
 20
208.642853
 30
0.0
 10
61.166664
 20
208.642853
 30
0.0
 10
61.166664
 20
205.642853
 30
0.0
 10
51.166664
 20
205.642853
 30
0.0
  0
LWPOLYLINE
  5
103
100
AcDbEntity
  8
Layer_1
 62
7
100
AcDbPolyline
 90
4
 70
1
 10
91.166664
 20
208.642853
 30
0.0
 10
101.166664
 20
208.642853
 30
0.0
 10
101.166664
 20
205.642853
 30
0.0
 10
91.166664
 20
205.642853
 30
0.0
  0
LWPOLYLINE
  5
104
100
AcDbEntity
  8
Layer_1
 62
7
100
AcDbPolyline
 90
4
 70
1
 10
71.166664
 20
208.642853
 30
0.0
 10
81.166664
 20
208.642853
 30
0.0
 10
81.166664
 20
205.642853
 30
0.0
 10
71.166664
 20
205.642853
 30
0.0
  0
LWPOLYLINE
  5
105
100
AcDbEntity
  8
Layer_1
 62
7
100
AcDbPolyline
 90
4
 70
1
 10
21.166332
 20
271.642853
 30
0.0
 10
31.166332
 20
271.642853
 30
0.0
 10
31.166332
 20
268.642853
 30
0.0
 10
21.166332
 20
268.642853
 30
0.0
  0
LWPOLYLINE
  5
106
100
AcDbEntity
  8
Layer_1
 62
7
100
AcDbPolyline
 90
4
 70
1
 10
41.166664
 20
271.642853
 30
0.0
 10
51.166664
 20
271.642853
 30
0.0
 10
51.166664
 20
268.642853
 30
0.0
 10
41.166664
 20
268.642853
 30
0.0
  0
LWPOLYLINE
  5
107
100
AcDbEntity
  8
Layer_1
 62
7
100
AcDbPolyline
 90
4
 70
1
 10
61.166664
 20
271.642853
 30
0.0
 10
71.166664
 20
271.642853
 30
0.0
 10
71.166664
 20
268.642853
 30
0.0
 10
61.166664
 20
268.642853
 30
0.0
  0
LWPOLYLINE
  5
108
100
AcDbEntity
  8
Layer_1
 62
7
100
AcDbPolyline
 90
4
 70
1
 10
81.166664
 20
271.642853
 30
0.0
 10
91.166664
 20
271.642853
 30
0.0
 10
91.166664
 20
268.642853
 30
0.0
 10
81.166664
 20
268.642853
 30
0.0
  0
LWPOLYLINE
  5
109
100
AcDbEntity
  8
Layer_1
 62
7
100
AcDbPolyline
 90
4
 70
1
 10
101.166660
 20
258.642704
 30
0.0
 10
101.166660
 20
268.642704
 30
0.0
 10
104.166660
 20
268.642704
 30
0.0
 10
104.166660
 20
258.642704
 30
0.0
  0
LWPOLYLINE
  5
10a
100
AcDbEntity
  8
Layer_1
 62
7
100
AcDbPolyline
 90
4
 70
1
 10
101.166660
 20
238.642853
 30
0.0
 10
101.166660
 20
248.642853
 30
0.0
 10
104.166660
 20
248.642853
 30
0.0
 10
104.166660
 20
238.642853
 30
0.0
  0
LWPOLYLINE
  5
10b
100
AcDbEntity
  8
Layer_1
 62
7
100
AcDbPolyline
 90
4
 70
1
 10
101.166660
 20
218.642853
 30
0.0
 10
101.166660
 20
228.642853
 30
0.0
 10
104.166660
 20
228.642853
 30
0.0
 10
104.166660
 20
218.642853
 30
0.0
  0
LWPOLYLINE
  5
10c
100
AcDbEntity
  8
Layer_1
 62
7
100
AcDbPolyline
 90
4
 70
1
 10
18.166666
 20
248.642704
 30
0.0
 10
18.166666
 20
258.642704
 30
0.0
 10
21.166666
 20
258.642704
 30
0.0
 10
21.166666
 20
248.642704
 30
0.0
  0
LWPOLYLINE
  5
10d
100
AcDbEntity
  8
Layer_1
 62
7
100
AcDbPolyline
 90
4
 70
1
 10
18.166666
 20
228.642853
 30
0.0
 10
18.166666
 20
238.642853
 30
0.0
 10
21.166666
 20
238.642853
 30
0.0
 10
21.166666
 20
228.642853
 30
0.0
  0
LWPOLYLINE
  5
10e
100
AcDbEntity
  8
Layer_1
 62
7
100
AcDbPolyline
 90
4
 70
1
 10
18.166666
 20
208.642853
 30
0.0
 10
18.166666
 20
218.642853
 30
0.0
 10
21.166666
 20
218.642853
 30
0.0
 10
21.166666
 20
208.642853
 30
0.0
  0
LWPOLYLINE
  5
10f
100
AcDbEntity
  8
Layer_1
 62
7
100
AcDbPolyline
 90
4
 70
1
 10
121.430800
 20
261.826290
 30
0.0
 10
201.430800
 20
261.826290
 30
0.0
 10
201.430800
 20
201.826290
 30
0.0
 10
121.430800
 20
201.826290
 30
0.0
  0
LWPOLYLINE
  5
110
100
AcDbEntity
  8
Layer_1
 62
7
100
AcDbPolyline
 90
4
 70
1
 10
131.430470
 20
201.826294
 30
0.0
 10
141.430470
 20
201.826294
 30
0.0
 10
141.430470
 20
198.826294
 30
0.0
 10
131.430470
 20
198.826294
 30
0.0
  0
LWPOLYLINE
  5
111
100
AcDbEntity
  8
Layer_1
 62
7
100
AcDbPolyline
 90
4
 70
1
 10
151.430800
 20
201.826294
 30
0.0
 10
161.430800
 20
201.826294
 30
0.0
 10
161.430800
 20
198.826294
 30
0.0
 10
151.430800
 20
198.826294
 30
0.0
  0
LWPOLYLINE
  5
112
100
AcDbEntity
  8
Layer_1
 62
7
100
AcDbPolyline
 90
4
 70
1
 10
191.430800
 20
201.826294
 30
0.0
 10
201.430800
 20
201.826294
 30
0.0
 10
201.430800
 20
198.826294
 30
0.0
 10
191.430800
 20
198.826294
 30
0.0
  0
LWPOLYLINE
  5
113
100
AcDbEntity
  8
Layer_1
 62
7
100
AcDbPolyline
 90
4
 70
1
 10
171.430800
 20
201.826294
 30
0.0
 10
181.430800
 20
201.826294
 30
0.0
 10
181.430800
 20
198.826294
 30
0.0
 10
171.430800
 20
198.826294
 30
0.0
  0
LWPOLYLINE
  5
114
100
AcDbEntity
  8
Layer_1
 62
7
100
AcDbPolyline
 90
4
 70
1
 10
121.430470
 20
264.826290
 30
0.0
 10
131.430470
 20
264.826290
 30
0.0
 10
131.430470
 20
261.826290
 30
0.0
 10
121.430470
 20
261.826290
 30
0.0
  0
LWPOLYLINE
  5
115
100
AcDbEntity
  8
Layer_1
 62
7
100
AcDbPolyline
 90
4
 70
1
 10
141.430800
 20
264.826290
 30
0.0
 10
151.430800
 20
264.826290
 30
0.0
 10
151.430800
 20
261.826290
 30
0.0
 10
141.430800
 20
261.826290
 30
0.0
  0
LWPOLYLINE
  5
116
100
AcDbEntity
  8
Layer_1
 62
7
100
AcDbPolyline
 90
4
 70
1
 10
161.430800
 20
264.826290
 30
0.0
 10
171.430800
 20
264.826290
 30
0.0
 10
171.430800
 20
261.826290
 30
0.0
 10
161.430800
 20
261.826290
 30
0.0
  0
LWPOLYLINE
  5
117
100
AcDbEntity
  8
Layer_1
 62
7
100
AcDbPolyline
 90
4
 70
1
 10
181.430800
 20
264.826290
 30
0.0
 10
191.430800
 20
264.826290
 30
0.0
 10
191.430800
 20
261.826290
 30
0.0
 10
181.430800
 20
261.826290
 30
0.0
  0
LWPOLYLINE
  5
118
100
AcDbEntity
  8
Layer_1
 62
7
100
AcDbPolyline
 90
4
 70
1
 10
201.430800
 20
251.826290
 30
0.0
 10
201.430800
 20
261.826290
 30
0.0
 10
204.430800
 20
261.826290
 30
0.0
 10
204.430800
 20
251.826290
 30
0.0
  0
LWPOLYLINE
  5
119
100
AcDbEntity
  8
Layer_1
 62
7
100
AcDbPolyline
 90
4
 70
1
 10
201.430800
 20
231.826439
 30
0.0
 10
201.430800
 20
241.826439
 30
0.0
 10
204.430800
 20
241.826439
 30
0.0
 10
204.430800
 20
231.826439
 30
0.0
  0
LWPOLYLINE
  5
11a
100
AcDbEntity
  8
Layer_1
 62
7
100
AcDbPolyline
 90
4
 70
1
 10
201.430800
 20
211.826431
 30
0.0
 10
201.430800
 20
221.826431
 30
0.0
 10
204.430800
 20
221.826431
 30
0.0
 10
204.430800
 20
211.826431
 30
0.0
  0
LWPOLYLINE
  5
11b
100
AcDbEntity
  8
Layer_1
 62
7
100
AcDbPolyline
 90
4
 70
1
 10
118.430800
 20
241.826149
 30
0.0
 10
118.430800
 20
251.826149
 30
0.0
 10
121.430800
 20
251.826149
 30
0.0
 10
121.430800
 20
241.826149
 30
0.0
  0
LWPOLYLINE
  5
11c
100
AcDbEntity
  8
Layer_1
 62
7
100
AcDbPolyline
 90
4
 70
1
 10
118.430800
 20
221.826294
 30
0.0
 10
118.430800
 20
231.826294
 30
0.0
 10
121.430800
 20
231.826294
 30
0.0
 10
121.430800
 20
221.826294
 30
0.0
  0
LWPOLYLINE
  5
11d
100
AcDbEntity
  8
Layer_1
 62
7
100
AcDbPolyline
 90
4
 70
1
 10
118.430800
 20
201.826294
 30
0.0
 10
118.430800
 20
211.826294
 30
0.0
 10
121.430800
 20
211.826294
 30
0.0
 10
121.430800
 20
201.826294
 30
0.0
  0
LWPOLYLINE
  5
11e
100
AcDbEntity
  8
Layer_1
 62
7
100
AcDbPolyline
 90
4
 70
1
 10
147.931140
 20
249.826004
 30
0.0
 10
174.931140
 20
249.826004
 30
0.0
 10
174.931140
 20
234.826004
 30
0.0
 10
147.931140
 20
234.826004
 30
0.0
  0
LWPOLYLINE
  5
11f
100
AcDbEntity
  8
Layer_1
 62
7
100
AcDbPolyline
 90
4
 70
1
 10
135.931140
 20
229.825996
 30
0.0
 10
147.931140
 20
229.825996
 30
0.0
 10
147.931140
 20
217.825996
 30
0.0
 10
135.931140
 20
217.825996
 30
0.0
  0
LWPOLYLINE
  5
120
100
AcDbEntity
  8
Layer_1
 62
7
100
AcDbPolyline
 90
4
 70
1
 10
174.931140
 20
229.825996
 30
0.0
 10
186.931140
 20
229.825996
 30
0.0
 10
186.931140
 20
217.825996
 30
0.0
 10
174.931140
 20
217.825996
 30
0.0
  0
LWPOLYLINE
  5
121
100
AcDbEntity
  8
Layer_1
 62
7
100
AcDbPolyline
 90
4
 70
1
 10
35.546848
 20
186.554140
 30
0.0
 10
115.546848
 20
186.554140
 30
0.0
 10
115.546848
 20
156.554140
 30
0.0
 10
35.546848
 20
156.554140
 30
0.0
  0
LWPOLYLINE
  5
122
100
AcDbEntity
  8
Layer_1
 62
7
100
AcDbPolyline
 90
4
 70
1
 10
35.546509
 20
189.554140
 30
0.0
 10
45.546509
 20
189.554140
 30
0.0
 10
45.546509
 20
186.554140
 30
0.0
 10
35.546509
 20
186.554140
 30
0.0
  0
LWPOLYLINE
  5
123
100
AcDbEntity
  8
Layer_1
 62
7
100
AcDbPolyline
 90
4
 70
1
 10
55.546844
 20
189.554140
 30
0.0
 10
65.546844
 20
189.554140
 30
0.0
 10
65.546844
 20
186.554140
 30
0.0
 10
55.546844
 20
186.554140
 30
0.0
  0
LWPOLYLINE
  5
124
100
AcDbEntity
  8
Layer_1
 62
7
100
AcDbPolyline
 90
4
 70
1
 10
95.546844
 20
189.554140
 30
0.0
 10
105.546844
 20
189.554140
 30
0.0
 10
105.546844
 20
186.554140
 30
0.0
 10
95.546844
 20
186.554140
 30
0.0
  0
LWPOLYLINE
  5
125
100
AcDbEntity
  8
Layer_1
 62
7
100
AcDbPolyline
 90
4
 70
1
 10
75.546844
 20
189.554140
 30
0.0
 10
85.546844
 20
189.554140
 30
0.0
 10
85.546844
 20
186.554140
 30
0.0
 10
75.546844
 20
186.554140
 30
0.0
  0
LWPOLYLINE
  5
126
100
AcDbEntity
  8
Layer_1
 62
7
100
AcDbPolyline
 90
4
 70
1
 10
115.546850
 20
176.554140
 30
0.0
 10
115.546850
 20
186.554140
 30
0.0
 10
118.546850
 20
186.554140
 30
0.0
 10
118.546850
 20
176.554140
 30
0.0
  0
LWPOLYLINE
  5
127
100
AcDbEntity
  8
Layer_1
 62
7
100
AcDbPolyline
 90
4
 70
1
 10
115.546850
 20
156.554000
 30
0.0
 10
115.546850
 20
166.554000
 30
0.0
 10
118.546850
 20
166.554000
 30
0.0
 10
118.546850
 20
156.554000
 30
0.0
  0
LWPOLYLINE
  5
128
100
AcDbEntity
  8
Layer_1
 62
7
100
AcDbPolyline
 90
4
 70
1
 10
45.546516
 20
156.554140
 30
0.0
 10
55.546516
 20
156.554140
 30
0.0
 10
55.546516
 20
153.554140
 30
0.0
 10
45.546516
 20
153.554140
 30
0.0
  0
LWPOLYLINE
  5
129
100
AcDbEntity
  8
Layer_1
 62
7
100
AcDbPolyline
 90
4
 70
1
 10
65.546844
 20
156.554140
 30
0.0
 10
75.546844
 20
156.554140
 30
0.0
 10
75.546844
 20
153.554140
 30
0.0
 10
65.546844
 20
153.554140
 30
0.0
  0
LWPOLYLINE
  5
12a
100
AcDbEntity
  8
Layer_1
 62
7
100
AcDbPolyline
 90
4
 70
1
 10
105.546840
 20
156.554140
 30
0.0
 10
115.546840
 20
156.554140
 30
0.0
 10
115.546840
 20
153.554140
 30
0.0
 10
105.546840
 20
153.554140
 30
0.0
  0
LWPOLYLINE
  5
12b
100
AcDbEntity
  8
Layer_1
 62
7
100
AcDbPolyline
 90
4
 70
1
 10
85.546844
 20
156.554140
 30
0.0
 10
95.546844
 20
156.554140
 30
0.0
 10
95.546844
 20
153.554140
 30
0.0
 10
85.546844
 20
153.554140
 30
0.0
  0
LWPOLYLINE
  5
12c
100
AcDbEntity
  8
Layer_1
 62
7
100
AcDbPolyline
 90
4
 70
1
 10
32.546848
 20
166.554140
 30
0.0
 10
32.546848
 20
176.554140
 30
0.0
 10
35.546848
 20
176.554140
 30
0.0
 10
35.546848
 20
166.554140
 30
0.0
  0
LWPOLYLINE
  5
12d
100
AcDbEntity
  8
Layer_1
 62
7
100
AcDbPolyline
 90
4
 70
1
 10
126.431140
 20
187.121570
 30
0.0
 10
206.431140
 20
187.121570
 30
0.0
 10
206.431140
 20
157.121568
 30
0.0
 10
126.431140
 20
157.121568
 30
0.0
  0
LWPOLYLINE
  5
12e
100
AcDbEntity
  8
Layer_1
 62
7
100
AcDbPolyline
 90
4
 70
1
 10
126.430800
 20
190.121570
 30
0.0
 10
136.430800
 20
190.121570
 30
0.0
 10
136.430800
 20
187.121570
 30
0.0
 10
126.430800
 20
187.121570
 30
0.0
  0
LWPOLYLINE
  5
12f
100
AcDbEntity
  8
Layer_1
 62
7
100
AcDbPolyline
 90
4
 70
1
 10
146.431140
 20
190.121570
 30
0.0
 10
156.431140
 20
190.121570
 30
0.0
 10
156.431140
 20
187.121570
 30
0.0
 10
146.431140
 20
187.121570
 30
0.0
  0
LWPOLYLINE
  5
130
100
AcDbEntity
  8
Layer_1
 62
7
100
AcDbPolyline
 90
4
 70
1
 10
186.431140
 20
190.121570
 30
0.0
 10
196.431140
 20
190.121570
 30
0.0
 10
196.431140
 20
187.121570
 30
0.0
 10
186.431140
 20
187.121570
 30
0.0
  0
LWPOLYLINE
  5
131
100
AcDbEntity
  8
Layer_1
 62
7
100
AcDbPolyline
 90
4
 70
1
 10
166.431140
 20
190.121570
 30
0.0
 10
176.431140
 20
190.121570
 30
0.0
 10
176.431140
 20
187.121570
 30
0.0
 10
166.431140
 20
187.121570
 30
0.0
  0
LWPOLYLINE
  5
132
100
AcDbEntity
  8
Layer_1
 62
7
100
AcDbPolyline
 90
4
 70
1
 10
206.431150
 20
177.121570
 30
0.0
 10
206.431150
 20
187.121570
 30
0.0
 10
209.431150
 20
187.121570
 30
0.0
 10
209.431150
 20
177.121570
 30
0.0
  0
LWPOLYLINE
  5
133
100
AcDbEntity
  8
Layer_1
 62
7
100
AcDbPolyline
 90
4
 70
1
 10
206.431150
 20
157.121440
 30
0.0
 10
206.431150
 20
167.121440
 30
0.0
 10
209.431150
 20
167.121440
 30
0.0
 10
209.431150
 20
157.121440
 30
0.0
  0
LWPOLYLINE
  5
134
100
AcDbEntity
  8
Layer_1
 62
7
100
AcDbPolyline
 90
4
 70
1
 10
136.430800
 20
157.121580
 30
0.0
 10
146.430800
 20
157.121580
 30
0.0
 10
146.430800
 20
154.121580
 30
0.0
 10
136.430800
 20
154.121580
 30
0.0
  0
LWPOLYLINE
  5
135
100
AcDbEntity
  8
Layer_1
 62
7
100
AcDbPolyline
 90
4
 70
1
 10
156.431140
 20
157.121580
 30
0.0
 10
166.431140
 20
157.121580
 30
0.0
 10
166.431140
 20
154.121580
 30
0.0
 10
156.431140
 20
154.121580
 30
0.0
  0
LWPOLYLINE
  5
136
100
AcDbEntity
  8
Layer_1
 62
7
100
AcDbPolyline
 90
4
 70
1
 10
196.431120
 20
157.121580
 30
0.0
 10
206.431120
 20
157.121580
 30
0.0
 10
206.431120
 20
154.121580
 30
0.0
 10
196.431120
 20
154.121580
 30
0.0
  0
LWPOLYLINE
  5
137
100
AcDbEntity
  8
Layer_1
 62
7
100
AcDbPolyline
 90
4
 70
1
 10
176.431140
 20
157.121580
 30
0.0
 10
186.431140
 20
157.121580
 30
0.0
 10
186.431140
 20
154.121580
 30
0.0
 10
176.431140
 20
154.121580
 30
0.0
  0
LWPOLYLINE
  5
138
100
AcDbEntity
  8
Layer_1
 62
7
100
AcDbPolyline
 90
4
 70
1
 10
123.431140
 20
167.121580
 30
0.0
 10
123.431140
 20
177.121580
 30
0.0
 10
126.431140
 20
177.121580
 30
0.0
 10
126.431140
 20
167.121580
 30
0.0
  0
LWPOLYLINE
  5
139
100
AcDbEntity
  8
Layer_1
 62
7
100
AcDbPolyline
 90
4
 70
1
 10
99.931129
 20
142.000000
 30
0.0
 10
159.931129
 20
142.000000
 30
0.0
 10
159.931129
 20
111.999998
 30
0.0
 10
99.931129
 20
111.999998
 30
0.0
  0
LWPOLYLINE
  5
13a
100
AcDbEntity
  8
Layer_1
 62
7
100
AcDbPolyline
 90
4
 70
1
 10
99.931122
 20
145.000000
 30
0.0
 10
109.931122
 20
145.000000
 30
0.0
 10
109.931122
 20
142.000000
 30
0.0
 10
99.931122
 20
142.000000
 30
0.0
  0
LWPOLYLINE
  5
13b
100
AcDbEntity
  8
Layer_1
 62
7
100
AcDbPolyline
 90
4
 70
1
 10
139.931140
 20
145.000000
 30
0.0
 10
149.931140
 20
145.000000
 30
0.0
 10
149.931140
 20
142.000000
 30
0.0
 10
139.931140
 20
142.000000
 30
0.0
  0
LWPOLYLINE
  5
13c
100
AcDbEntity
  8
Layer_1
 62
7
100
AcDbPolyline
 90
4
 70
1
 10
119.931120
 20
145.000000
 30
0.0
 10
129.931120
 20
145.000000
 30
0.0
 10
129.931120
 20
142.000000
 30
0.0
 10
119.931120
 20
142.000000
 30
0.0
  0
LWPOLYLINE
  5
13d
100
AcDbEntity
  8
Layer_1
 62
7
100
AcDbPolyline
 90
4
 70
1
 10
159.931140
 20
132.000000
 30
0.0
 10
159.931140
 20
142.000000
 30
0.0
 10
162.931140
 20
142.000000
 30
0.0
 10
162.931140
 20
132.000000
 30
0.0
  0
LWPOLYLINE
  5
13e
100
AcDbEntity
  8
Layer_1
 62
7
100
AcDbPolyline
 90
4
 70
1
 10
159.931140
 20
111.999860
 30
0.0
 10
159.931140
 20
121.999860
 30
0.0
 10
162.931140
 20
121.999860
 30
0.0
 10
162.931140
 20
111.999860
 30
0.0
  0
LWPOLYLINE
  5
13f
100
AcDbEntity
  8
Layer_1
 62
7
100
AcDbPolyline
 90
4
 70
1
 10
149.931120
 20
112.000000
 30
0.0
 10
159.931120
 20
112.000000
 30
0.0
 10
159.931120
 20
109.000000
 30
0.0
 10
149.931120
 20
109.000000
 30
0.0
  0
LWPOLYLINE
  5
140
100
AcDbEntity
  8
Layer_1
 62
7
100
AcDbPolyline
 90
4
 70
1
 10
96.931129
 20
122.000000
 30
0.0
 10
96.931129
 20
132.000000
 30
0.0
 10
99.931129
 20
132.000000
 30
0.0
 10
99.931129
 20
122.000000
 30
0.0
  0
LWPOLYLINE
  5
141
100
AcDbEntity
  8
Layer_1
 62
7
100
AcDbPolyline
 90
4
 70
1
 10
129.930770
 20
112.000000
 30
0.0
 10
139.930770
 20
112.000000
 30
0.0
 10
139.930770
 20
109.000000
 30
0.0
 10
129.930770
 20
109.000000
 30
0.0
  0
LWPOLYLINE
  5
142
100
AcDbEntity
  8
Layer_1
 62
7
100
AcDbPolyline
 90
4
 70
1
 10
109.930780
 20
112.000000
 30
0.0
 10
119.930780
 20
112.000000
 30
0.0
 10
119.930780
 20
109.000000
 30
0.0
 10
109.930780
 20
109.000000
 30
0.0
  0
LWPOLYLINE
  5
143
100
AcDbEntity
  8
Layer_1
 62
7
100
AcDbPolyline
 90
4
 70
1
 10
20.135654
 20
142.888470
 30
0.0
 10
80.135654
 20
142.888470
 30
0.0
 10
80.135654
 20
112.888468
 30
0.0
 10
20.135654
 20
112.888468
 30
0.0
  0
LWPOLYLINE
  5
144
100
AcDbEntity
  8
Layer_1
 62
7
100
AcDbPolyline
 90
4
 70
1
 10
20.135639
 20
145.888470
 30
0.0
 10
30.135639
 20
145.888470
 30
0.0
 10
30.135639
 20
142.888470
 30
0.0
 10
20.135639
 20
142.888470
 30
0.0
  0
LWPOLYLINE
  5
145
100
AcDbEntity
  8
Layer_1
 62
7
100
AcDbPolyline
 90
4
 70
1
 10
60.135670
 20
145.888470
 30
0.0
 10
70.135670
 20
145.888470
 30
0.0
 10
70.135670
 20
142.888470
 30
0.0
 10
60.135670
 20
142.888470
 30
0.0
  0
LWPOLYLINE
  5
146
100
AcDbEntity
  8
Layer_1
 62
7
100
AcDbPolyline
 90
4
 70
1
 10
40.135654
 20
145.888470
 30
0.0
 10
50.135654
 20
145.888470
 30
0.0
 10
50.135654
 20
142.888470
 30
0.0
 10
40.135654
 20
142.888470
 30
0.0
  0
LWPOLYLINE
  5
147
100
AcDbEntity
  8
Layer_1
 62
7
100
AcDbPolyline
 90
4
 70
1
 10
80.135674
 20
132.888470
 30
0.0
 10
80.135674
 20
142.888470
 30
0.0
 10
83.135674
 20
142.888470
 30
0.0
 10
83.135674
 20
132.888470
 30
0.0
  0
LWPOLYLINE
  5
148
100
AcDbEntity
  8
Layer_1
 62
7
100
AcDbPolyline
 90
4
 70
1
 10
80.135674
 20
112.888340
 30
0.0
 10
80.135674
 20
122.888340
 30
0.0
 10
83.135674
 20
122.888340
 30
0.0
 10
83.135674
 20
112.888340
 30
0.0
  0
LWPOLYLINE
  5
149
100
AcDbEntity
  8
Layer_1
 62
7
100
AcDbPolyline
 90
4
 70
1
 10
70.135651
 20
112.888470
 30
0.0
 10
80.135651
 20
112.888470
 30
0.0
 10
80.135651
 20
109.888470
 30
0.0
 10
70.135651
 20
109.888470
 30
0.0
  0
LWPOLYLINE
  5
14a
100
AcDbEntity
  8
Layer_1
 62
7
100
AcDbPolyline
 90
4
 70
1
 10
17.135639
 20
122.888470
 30
0.0
 10
17.135639
 20
132.888470
 30
0.0
 10
20.135639
 20
132.888470
 30
0.0
 10
20.135639
 20
122.888470
 30
0.0
  0
LWPOLYLINE
  5
14b
100
AcDbEntity
  8
Layer_1
 62
7
100
AcDbPolyline
 90
4
 70
1
 10
50.135303
 20
112.888470
 30
0.0
 10
60.135303
 20
112.888470
 30
0.0
 10
60.135303
 20
109.888470
 30
0.0
 10
50.135303
 20
109.888470
 30
0.0
  0
LWPOLYLINE
  5
14c
100
AcDbEntity
  8
Layer_1
 62
7
100
AcDbPolyline
 90
4
 70
1
 10
30.135303
 20
112.888470
 30
0.0
 10
40.135303
 20
112.888470
 30
0.0
 10
40.135303
 20
109.888470
 30
0.0
 10
30.135303
 20
109.888470
 30
0.0
  0
LWPOLYLINE
  5
14d
100
AcDbEntity
  8
Layer_1
 62
7
100
AcDbPolyline
 90
45
 70
1
 10
222.512830
 20
199.458160
 30
0.0
 10
222.512830
 20
196.458340
 30
0.0
 10
222.513360
 20
196.458340
 30
0.0
 10
222.513360
 20
186.458440
 30
0.0
 10
219.513010
 20
186.458440
 30
0.0
 10
219.513010
 20
176.458530
 30
0.0
 10
222.513360
 20
176.458530
 30
0.0
 10
222.513360
 20
166.458110
 30
0.0
 10
232.512730
 20
166.458110
 30
0.0
 10
232.512730
 20
163.458290
 30
0.0
 10
242.512630
 20
163.458290
 30
0.0
 10
242.512630
 20
166.458110
 30
0.0
 10
252.513060
 20
166.458110
 30
0.0
 10
252.513060
 20
163.458290
 30
0.0
 10
262.512960
 20
163.458290
 30
0.0
 10
262.512960
 20
166.458110
 30
0.0
 10
272.513390
 20
166.458110
 30
0.0
 10
272.513390
 20
163.458290
 30
0.0
 10
282.513290
 20
163.458290
 30
0.0
 10
282.513290
 20
166.458110
 30
0.0
 10
292.513220
 20
166.458110
 30
0.0
 10
292.513220
 20
163.458290
 30
0.0
 10
302.513120
 20
163.458290
 30
0.0
 10
302.513120
 20
166.458110
 30
0.0
 10
305.512940
 20
166.458110
 30
0.0
 10
305.512940
 20
176.458010
 30
0.0
 10
302.513120
 20
176.458010
 30
0.0
 10
302.513120
 20
186.458440
 30
0.0
 10
305.512940
 20
186.458440
 30
0.0
 10
305.512940
 20
196.458340
 30
0.0
 10
302.513120
 20
196.458340
 30
0.0
 10
292.513220
 20
196.458340
 30
0.0
 10
292.513220
 20
199.458160
 30
0.0
 10
282.513290
 20
199.458160
 30
0.0
 10
282.513290
 20
196.458340
 30
0.0
 10
272.513390
 20
196.458340
 30
0.0
 10
272.513390
 20
199.458160
 30
0.0
 10
262.512960
 20
199.458160
 30
0.0
 10
262.512960
 20
196.458340
 30
0.0
 10
252.513060
 20
196.458340
 30
0.0
 10
252.513060
 20
199.458160
 30
0.0
 10
242.513160
 20
199.458160
 30
0.0
 10
242.513160
 20
196.458340
 30
0.0
 10
232.512730
 20
196.458340
 30
0.0
 10
232.512730
 20
199.458160
 30
0.0
  0
LWPOLYLINE
  5
14e
100
AcDbEntity
  8
Layer_1
 62
7
100
AcDbPolyline
 90
44
 70
1
 10
308.513260
 20
199.458160
 30
0.0
 10
308.513260
 20
196.458340
 30
0.0
 10
308.513260
 20
186.458430
 30
0.0
 10
305.513440
 20
186.458430
 30
0.0
 10
305.513440
 20
176.458530
 30
0.0
 10
308.513260
 20
176.458530
 30
0.0
 10
308.513260
 20
166.458100
 30
0.0
 10
318.513160
 20
166.458100
 30
0.0
 10
318.513160
 20
163.458290
 30
0.0
 10
328.513060
 20
163.458290
 30
0.0
 10
328.513060
 20
166.458100
 30
0.0
 10
338.513490
 20
166.458100
 30
0.0
 10
338.513490
 20
163.458290
 30
0.0
 10
348.513390
 20
163.458290
 30
0.0
 10
348.513390
 20
166.458100
 30
0.0
 10
358.513320
 20
166.458100
 30
0.0
 10
358.513320
 20
163.458290
 30
0.0
 10
368.513720
 20
163.458290
 30
0.0
 10
368.513720
 20
166.458100
 30
0.0
 10
378.513650
 20
166.458100
 30
0.0
 10
378.513650
 20
163.458290
 30
0.0
 10
388.513550
 20
163.458290
 30
0.0
 10
388.513550
 20
166.458100
 30
0.0
 10
391.513370
 20
166.458100
 30
0.0
 10
391.513370
 20
176.458010
 30
0.0
 10
388.513550
 20
176.458010
 30
0.0
 10
388.513550
 20
186.458430
 30
0.0
 10
391.513370
 20
186.458430
 30
0.0
 10
391.513370
 20
196.458340
 30
0.0
 10
388.513550
 20
196.458340
 30
0.0
 10
378.513650
 20
196.458340
 30
0.0
 10
378.513650
 20
199.458160
 30
0.0
 10
368.513720
 20
199.458160
 30
0.0
 10
368.513720
 20
196.458340
 30
0.0
 10
358.513320
 20
196.458340
 30
0.0
 10
358.513320
 20
199.458160
 30
0.0
 10
348.513390
 20
199.458160
 30
0.0
 10
348.513390
 20
196.458340
 30
0.0
 10
338.513490
 20
196.458340
 30
0.0
 10
338.513490
 20
199.458160
 30
0.0
 10
328.513590
 20
199.458160
 30
0.0
 10
328.513590
 20
196.458340
 30
0.0
 10
318.513160
 20
196.458340
 30
0.0
 10
318.513160
 20
199.458160
 30
0.0
  0
LWPOLYLINE
  5
14f
100
AcDbEntity
  8
Layer_1
 62
7
100
AcDbPolyline
 90
36
 70
1
 10
308.513260
 20
163.458290
 30
0.0
 10
308.513260
 20
160.457960
 30
0.0
 10
308.513260
 20
150.458050
 30
0.0
 10
305.512910
 20
150.458050
 30
0.0
 10
305.512910
 20
140.458150
 30
0.0
 10
308.513260
 20
140.458150
 30
0.0
 10
308.513260
 20
130.458240
 30
0.0
 10
318.512630
 20
130.458240
 30
0.0
 10
318.512630
 20
127.458420
 30
0.0
 10
328.513060
 20
127.458420
 30
0.0
 10
328.513060
 20
130.458240
 30
0.0
 10
338.512960
 20
130.458240
 30
0.0
 10
338.512960
 20
127.458420
 30
0.0
 10
348.512860
 20
127.458420
 30
0.0
 10
348.512860
 20
130.458240
 30
0.0
 10
358.513290
 20
130.458240
 30
0.0
 10
358.513290
 20
127.458420
 30
0.0
 10
368.513190
 20
127.458420
 30
0.0
 10
368.513190
 20
130.458240
 30
0.0
 10
371.513010
 20
130.458240
 30
0.0
 10
371.513010
 20
140.458150
 30
0.0
 10
368.513190
 20
140.458150
 30
0.0
 10
368.513190
 20
150.458050
 30
0.0
 10
371.513010
 20
150.458050
 30
0.0
 10
371.513010
 20
160.457960
 30
0.0
 10
368.513190
 20
160.457960
 30
0.0
 10
358.513290
 20
160.457960
 30
0.0
 10
358.513290
 20
163.458290
 30
0.0
 10
348.513390
 20
163.458290
 30
0.0
 10
348.513390
 20
160.457960
 30
0.0
 10
338.512960
 20
160.457960
 30
0.0
 10
338.512960
 20
163.458290
 30
0.0
 10
328.513060
 20
163.458290
 30
0.0
 10
328.513060
 20
160.457960
 30
0.0
 10
318.513160
 20
160.457960
 30
0.0
 10
318.513160
 20
163.458290
 30
0.0
  0
LWPOLYLINE
  5
150
100
AcDbEntity
  8
Layer_1
 62
7
100
AcDbPolyline
 90
36
 70
1
 10
242.512630
 20
163.458290
 30
0.0
 10
242.512630
 20
160.458470
 30
0.0
 10
242.512630
 20
150.458560
 30
0.0
 10
239.512810
 20
150.458560
 30
0.0
 10
239.512810
 20
140.458140
 30
0.0
 10
242.512630
 20
140.458140
 30
0.0
 10
242.512630
 20
130.458230
 30
0.0
 10
252.512530
 20
130.458230
 30
0.0
 10
252.512530
 20
127.458420
 30
0.0
 10
262.512460
 20
127.458420
 30
0.0
 10
262.512460
 20
130.458230
 30
0.0
 10
272.512360
 20
130.458230
 30
0.0
 10
272.512360
 20
127.458420
 30
0.0
 10
282.512260
 20
127.458420
 30
0.0
 10
282.512260
 20
130.458230
 30
0.0
 10
292.512690
 20
130.458230
 30
0.0
 10
292.512690
 20
127.458420
 30
0.0
 10
302.512590
 20
127.458420
 30
0.0
 10
302.512590
 20
130.458230
 30
0.0
 10
305.512910
 20
130.458230
 30
0.0
 10
305.512910
 20
140.458140
 30
0.0
 10
302.512590
 20
140.458140
 30
0.0
 10
302.512590
 20
150.458560
 30
0.0
 10
305.512910
 20
150.458560
 30
0.0
 10
305.512910
 20
160.458470
 30
0.0
 10
302.512590
 20
160.458470
 30
0.0
 10
292.512690
 20
160.458470
 30
0.0
 10
292.512690
 20
163.458290
 30
0.0
 10
282.512790
 20
163.458290
 30
0.0
 10
282.512790
 20
160.458470
 30
0.0
 10
272.512860
 20
160.458470
 30
0.0
 10
272.512860
 20
163.458290
 30
0.0
 10
262.512460
 20
163.458290
 30
0.0
 10
262.512460
 20
160.458470
 30
0.0
 10
252.512530
 20
160.458470
 30
0.0
 10
252.512530
 20
163.458290
 30
0.0
  0
LWPOLYLINE
  5
151
100
AcDbEntity
  8
Layer_1
 62
7
100
AcDbPolyline
 90
58
 70
1
 10
222.512810
 20
265.458265
 30
0.0
 10
222.512810
 20
262.458449
 30
0.0
 10
222.513320
 20
262.458449
 30
0.0
 10
222.513320
 20
252.458024
 30
0.0
 10
219.512990
 20
252.458024
 30
0.0
 10
219.512990
 20
242.458118
 30
0.0
 10
222.513320
 20
242.458118
 30
0.0
 10
222.513320
 20
232.458213
 30
0.0
 10
219.512990
 20
232.458213
 30
0.0
 10
219.512990
 20
222.458307
 30
0.0
 10
222.513320
 20
222.458307
 30
0.0
 10
222.513320
 20
212.458401
 30
0.0
 10
219.512990
 20
212.458401
 30
0.0
 10
219.512990
 20
202.458493
 30
0.0
 10
222.513320
 20
202.458493
 30
0.0
 10
232.512710
 20
202.458493
 30
0.0
 10
232.512710
 20
199.458160
 30
0.0
 10
242.513140
 20
199.458160
 30
0.0
 10
242.513140
 20
202.458493
 30
0.0
 10
252.513040
 20
202.458493
 30
0.0
 10
252.513040
 20
199.458160
 30
0.0
 10
262.513460
 20
199.458160
 30
0.0
 10
262.513460
 20
202.458493
 30
0.0
 10
272.513360
 20
202.458493
 30
0.0
 10
272.513360
 20
199.458160
 30
0.0
 10
282.513290
 20
199.458160
 30
0.0
 10
282.513290
 20
202.458493
 30
0.0
 10
292.513190
 20
202.458493
 30
0.0
 10
292.513190
 20
199.458160
 30
0.0
 10
302.513090
 20
199.458160
 30
0.0
 10
302.513090
 20
202.458493
 30
0.0
 10
302.513090
 20
212.458401
 30
0.0
 10
305.513440
 20
212.458401
 30
0.0
 10
305.513440
 20
222.458307
 30
0.0
 10
302.513090
 20
222.458307
 30
0.0
 10
302.513090
 20
232.458213
 30
0.0
 10
305.513440
 20
232.458213
 30
0.0
 10
305.513440
 20
242.458118
 30
0.0
 10
302.513090
 20
242.458118
 30
0.0
 10
302.513090
 20
252.458024
 30
0.0
 10
305.513440
 20
252.458024
 30
0.0
 10
305.513440
 20
262.457933
 30
0.0
 10
302.513090
 20
262.457933
 30
0.0
 10
302.513090
 20
262.458449
 30
0.0
 10
292.513190
 20
262.458449
 30
0.0
 10
292.513190
 20
265.458265
 30
0.0
 10
282.513290
 20
265.458265
 30
0.0
 10
282.513290
 20
262.458449
 30
0.0
 10
272.513360
 20
262.458449
 30
0.0
 10
272.513360
 20
265.458265
 30
0.0
 10
262.512960
 20
265.458265
 30
0.0
 10
262.512960
 20
262.458449
 30
0.0
 10
252.513040
 20
262.458449
 30
0.0
 10
252.513040
 20
265.458265
 30
0.0
 10
242.513140
 20
265.458265
 30
0.0
 10
242.513140
 20
262.458449
 30
0.0
 10
232.512710
 20
262.458449
 30
0.0
 10
232.512710
 20
265.458265
 30
0.0
  0
LWPOLYLINE
  5
152
100
AcDbEntity
  8
Layer_1
 62
7
100
AcDbPolyline
 90
57
 70
1
 10
308.512760
 20
265.458264
 30
0.0
 10
308.512760
 20
262.457932
 30
0.0
 10
308.513290
 20
262.457932
 30
0.0
 10
308.513290
 20
252.458023
 30
0.0
 10
305.513470
 20
252.458023
 30
0.0
 10
305.513470
 20
242.458117
 30
0.0
 10
308.513290
 20
242.458117
 30
0.0
 10
308.513290
 20
232.458212
 30
0.0
 10
305.513470
 20
232.458212
 30
0.0
 10
305.513470
 20
222.458306
 30
0.0
 10
308.513290
 20
222.458306
 30
0.0
 10
308.513290
 20
212.458400
 30
0.0
 10
305.513470
 20
212.458400
 30
0.0
 10
305.513470
 20
202.457980
 30
0.0
 10
308.513290
 20
202.457980
 30
0.0
 10
318.513190
 20
202.457980
 30
0.0
 10
318.513190
 20
199.458160
 30
0.0
 10
328.513090
 20
199.458160
 30
0.0
 10
328.513090
 20
202.457980
 30
0.0
 10
338.513520
 20
202.457980
 30
0.0
 10
338.513520
 20
199.458160
 30
0.0
 10
348.513420
 20
199.458160
 30
0.0
 10
348.513420
 20
202.457980
 30
0.0
 10
358.513320
 20
202.457980
 30
0.0
 10
358.513320
 20
199.458160
 30
0.0
 10
368.513220
 20
199.458160
 30
0.0
 10
368.513220
 20
202.457980
 30
0.0
 10
378.513150
 20
202.457980
 30
0.0
 10
378.513150
 20
199.458160
 30
0.0
 10
388.513050
 20
199.458160
 30
0.0
 10
388.513050
 20
202.457980
 30
0.0
 10
388.513050
 20
212.458400
 30
0.0
 10
391.513370
 20
212.458400
 30
0.0
 10
391.513370
 20
222.458306
 30
0.0
 10
388.513050
 20
222.458306
 30
0.0
 10
388.513050
 20
232.458212
 30
0.0
 10
391.513370
 20
232.458212
 30
0.0
 10
391.513370
 20
242.458117
 30
0.0
 10
388.513050
 20
242.458117
 30
0.0
 10
388.513050
 20
252.458023
 30
0.0
 10
391.513370
 20
252.458023
 30
0.0
 10
391.513370
 20
262.457932
 30
0.0
 10
388.513050
 20
262.457932
 30
0.0
 10
378.513150
 20
262.457932
 30
0.0
 10
378.513150
 20
265.458264
 30
0.0
 10
368.513220
 20
265.458264
 30
0.0
 10
368.513220
 20
262.457932
 30
0.0
 10
358.513320
 20
262.457932
 30
0.0
 10
358.513320
 20
265.458264
 30
0.0
 10
348.513420
 20
265.458264
 30
0.0
 10
348.513420
 20
262.457932
 30
0.0
 10
338.513520
 20
262.457932
 30
0.0
 10
338.513520
 20
265.458264
 30
0.0
 10
328.513090
 20
265.458264
 30
0.0
 10
328.513090
 20
262.457932
 30
0.0
 10
318.513190
 20
262.457932
 30
0.0
 10
318.513190
 20
265.458264
 30
0.0
  0
SPLINE
  5
153
100
AcDbEntity
  8
Layer_1
 62
7
100
AcDbSpline
 70
8
 71
3
 72
8
 73
4
 74
0
 40
0
 40
0
 40
0
 40
0
 40
1
 40
1
 40
1
 40
1
 10
332.014010
 20
230.457863
 30
0.0
 10
332.014010
 20
230.100597
 30
0.0
 10
331.823411
 20
229.770470
 30
0.0
 10
331.514010
 20
229.591838
 30
0.0
  0
SPLINE
  5
154
100
AcDbEntity
  8
Layer_1
 62
7
100
AcDbSpline
 70
8
 71
3
 72
8
 73
4
 74
0
 40
0
 40
0
 40
0
 40
0
 40
1
 40
1
 40
1
 40
1
 10
331.514010
 20
229.591838
 30
0.0
 10
331.204609
 20
229.413205
 30
0.0
 10
330.823411
 20
229.413205
 30
0.0
 10
330.514010
 20
229.591838
 30
0.0
  0
SPLINE
  5
155
100
AcDbEntity
  8
Layer_1
 62
7
100
AcDbSpline
 70
8
 71
3
 72
8
 73
4
 74
0
 40
0
 40
0
 40
0
 40
0
 40
1
 40
1
 40
1
 40
1
 10
330.514010
 20
229.591838
 30
0.0
 10
330.204609
 20
229.770470
 30
0.0
 10
330.014010
 20
230.100597
 30
0.0
 10
330.014010
 20
230.457863
 30
0.0
  0
SPLINE
  5
156
100
AcDbEntity
  8
Layer_1
 62
7
100
AcDbSpline
 70
8
 71
3
 72
8
 73
4
 74
0
 40
0
 40
0
 40
0
 40
0
 40
1
 40
1
 40
1
 40
1
 10
330.014010
 20
230.457863
 30
0.0
 10
330.014010
 20
230.815129
 30
0.0
 10
330.204609
 20
231.145256
 30
0.0
 10
330.514010
 20
231.323888
 30
0.0
  0
SPLINE
  5
157
100
AcDbEntity
  8
Layer_1
 62
7
100
AcDbSpline
 70
8
 71
3
 72
8
 73
4
 74
0
 40
0
 40
0
 40
0
 40
0
 40
1
 40
1
 40
1
 40
1
 10
330.514010
 20
231.323888
 30
0.0
 10
330.823411
 20
231.502521
 30
0.0
 10
331.204609
 20
231.502521
 30
0.0
 10
331.514010
 20
231.323888
 30
0.0
  0
SPLINE
  5
158
100
AcDbEntity
  8
Layer_1
 62
7
100
AcDbSpline
 70
8
 71
3
 72
8
 73
4
 74
0
 40
0
 40
0
 40
0
 40
0
 40
1
 40
1
 40
1
 40
1
 10
331.514010
 20
231.323888
 30
0.0
 10
331.823411
 20
231.145256
 30
0.0
 10
332.014010
 20
230.815129
 30
0.0
 10
332.014010
 20
230.457863
 30
0.0
  0
LWPOLYLINE
  5
159
100
AcDbEntity
  8
Layer_1
 62
7
100
AcDbPolyline
 90
4
 70
1
 10
335.013820
 20
250.457867
 30
0.0
 10
362.013822
 20
250.457867
 30
0.0
 10
362.013822
 20
235.457867
 30
0.0
 10
335.013820
 20
235.457867
 30
0.0
  0
SPLINE
  5
15a
100
AcDbEntity
  8
Layer_1
 62
7
100
AcDbSpline
 70
8
 71
3
 72
8
 73
4
 74
0
 40
0
 40
0
 40
0
 40
0
 40
1
 40
1
 40
1
 40
1
 10
328.014010
 20
230.457863
 30
0.0
 10
328.014010
 20
230.100597
 30
0.0
 10
327.823411
 20
229.770470
 30
0.0
 10
327.514010
 20
229.591838
 30
0.0
  0
SPLINE
  5
15b
100
AcDbEntity
  8
Layer_1
 62
7
100
AcDbSpline
 70
8
 71
3
 72
8
 73
4
 74
0
 40
0
 40
0
 40
0
 40
0
 40
1
 40
1
 40
1
 40
1
 10
327.514010
 20
229.591838
 30
0.0
 10
327.204609
 20
229.413205
 30
0.0
 10
326.823411
 20
229.413205
 30
0.0
 10
326.514010
 20
229.591838
 30
0.0
  0
SPLINE
  5
15c
100
AcDbEntity
  8
Layer_1
 62
7
100
AcDbSpline
 70
8
 71
3
 72
8
 73
4
 74
0
 40
0
 40
0
 40
0
 40
0
 40
1
 40
1
 40
1
 40
1
 10
326.514010
 20
229.591838
 30
0.0
 10
326.204609
 20
229.770470
 30
0.0
 10
326.014010
 20
230.100597
 30
0.0
 10
326.014010
 20
230.457863
 30
0.0
  0
SPLINE
  5
15d
100
AcDbEntity
  8
Layer_1
 62
7
100
AcDbSpline
 70
8
 71
3
 72
8
 73
4
 74
0
 40
0
 40
0
 40
0
 40
0
 40
1
 40
1
 40
1
 40
1
 10
326.014010
 20
230.457863
 30
0.0
 10
326.014010
 20
230.815129
 30
0.0
 10
326.204609
 20
231.145256
 30
0.0
 10
326.514010
 20
231.323888
 30
0.0
  0
SPLINE
  5
15e
100
AcDbEntity
  8
Layer_1
 62
7
100
AcDbSpline
 70
8
 71
3
 72
8
 73
4
 74
0
 40
0
 40
0
 40
0
 40
0
 40
1
 40
1
 40
1
 40
1
 10
326.514010
 20
231.323888
 30
0.0
 10
326.823411
 20
231.502521
 30
0.0
 10
327.204609
 20
231.502521
 30
0.0
 10
327.514010
 20
231.323888
 30
0.0
  0
SPLINE
  5
15f
100
AcDbEntity
  8
Layer_1
 62
7
100
AcDbSpline
 70
8
 71
3
 72
8
 73
4
 74
0
 40
0
 40
0
 40
0
 40
0
 40
1
 40
1
 40
1
 40
1
 10
327.514010
 20
231.323888
 30
0.0
 10
327.823411
 20
231.145256
 30
0.0
 10
328.014010
 20
230.815129
 30
0.0
 10
328.014010
 20
230.457863
 30
0.0
  0
LWPOLYLINE
  5
160
100
AcDbEntity
  8
Layer_1
 62
7
100
AcDbPolyline
 90
1
 70
1
 10
332.014010
 20
230.457863
 30
0.0
  0
SPLINE
  5
161
100
AcDbEntity
  8
Layer_1
 62
7
100
AcDbSpline
 70
8
 71
3
 72
8
 73
4
 74
0
 40
0
 40
0
 40
0
 40
0
 40
1
 40
1
 40
1
 40
1
 10
332.083500
 20
217.950523
 30
0.0
 10
332.083500
 20
217.593257
 30
0.0
 10
331.892901
 20
217.263130
 30
0.0
 10
331.583500
 20
217.084498
 30
0.0
  0
SPLINE
  5
162
100
AcDbEntity
  8
Layer_1
 62
7
100
AcDbSpline
 70
8
 71
3
 72
8
 73
4
 74
0
 40
0
 40
0
 40
0
 40
0
 40
1
 40
1
 40
1
 40
1
 10
331.583500
 20
217.084498
 30
0.0
 10
331.274099
 20
216.905865
 30
0.0
 10
330.892901
 20
216.905865
 30
0.0
 10
330.583500
 20
217.084498
 30
0.0
  0
SPLINE
  5
163
100
AcDbEntity
  8
Layer_1
 62
7
100
AcDbSpline
 70
8
 71
3
 72
8
 73
4
 74
0
 40
0
 40
0
 40
0
 40
0
 40
1
 40
1
 40
1
 40
1
 10
330.583500
 20
217.084498
 30
0.0
 10
330.274099
 20
217.263130
 30
0.0
 10
330.083500
 20
217.593257
 30
0.0
 10
330.083500
 20
217.950523
 30
0.0
  0
SPLINE
  5
164
100
AcDbEntity
  8
Layer_1
 62
7
100
AcDbSpline
 70
8
 71
3
 72
8
 73
4
 74
0
 40
0
 40
0
 40
0
 40
0
 40
1
 40
1
 40
1
 40
1
 10
330.083500
 20
217.950523
 30
0.0
 10
330.083500
 20
218.307789
 30
0.0
 10
330.274099
 20
218.637916
 30
0.0
 10
330.583500
 20
218.816548
 30
0.0
  0
SPLINE
  5
165
100
AcDbEntity
  8
Layer_1
 62
7
100
AcDbSpline
 70
8
 71
3
 72
8
 73
4
 74
0
 40
0
 40
0
 40
0
 40
0
 40
1
 40
1
 40
1
 40
1
 10
330.583500
 20
218.816548
 30
0.0
 10
330.892901
 20
218.995181
 30
0.0
 10
331.274099
 20
218.995181
 30
0.0
 10
331.583500
 20
218.816548
 30
0.0
  0
SPLINE
  5
166
100
AcDbEntity
  8
Layer_1
 62
7
100
AcDbSpline
 70
8
 71
3
 72
8
 73
4
 74
0
 40
0
 40
0
 40
0
 40
0
 40
1
 40
1
 40
1
 40
1
 10
331.583500
 20
218.816548
 30
0.0
 10
331.892901
 20
218.637916
 30
0.0
 10
332.083500
 20
218.307789
 30
0.0
 10
332.083500
 20
217.950523
 30
0.0
  0
LWPOLYLINE
  5
167
100
AcDbEntity
  8
Layer_1
 62
7
100
AcDbPolyline
 90
1
 70
1
 10
328.014010
 20
230.457863
 30
0.0
  0
SPLINE
  5
168
100
AcDbEntity
  8
Layer_1
 62
7
100
AcDbSpline
 70
8
 71
3
 72
8
 73
4
 74
0
 40
0
 40
0
 40
0
 40
0
 40
1
 40
1
 40
1
 40
1
 10
328.083010
 20
217.950523
 30
0.0
 10
328.083010
 20
217.593257
 30
0.0
 10
327.892411
 20
217.263130
 30
0.0
 10
327.583010
 20
217.084498
 30
0.0
  0
SPLINE
  5
169
100
AcDbEntity
  8
Layer_1
 62
7
100
AcDbSpline
 70
8
 71
3
 72
8
 73
4
 74
0
 40
0
 40
0
 40
0
 40
0
 40
1
 40
1
 40
1
 40
1
 10
327.583010
 20
217.084498
 30
0.0
 10
327.273609
 20
216.905865
 30
0.0
 10
326.892411
 20
216.905865
 30
0.0
 10
326.583010
 20
217.084498
 30
0.0
  0
SPLINE
  5
16a
100
AcDbEntity
  8
Layer_1
 62
7
100
AcDbSpline
 70
8
 71
3
 72
8
 73
4
 74
0
 40
0
 40
0
 40
0
 40
0
 40
1
 40
1
 40
1
 40
1
 10
326.583010
 20
217.084498
 30
0.0
 10
326.273609
 20
217.263130
 30
0.0
 10
326.083010
 20
217.593257
 30
0.0
 10
326.083010
 20
217.950523
 30
0.0
  0
SPLINE
  5
16b
100
AcDbEntity
  8
Layer_1
 62
7
100
AcDbSpline
 70
8
 71
3
 72
8
 73
4
 74
0
 40
0
 40
0
 40
0
 40
0
 40
1
 40
1
 40
1
 40
1
 10
326.083010
 20
217.950523
 30
0.0
 10
326.083010
 20
218.307789
 30
0.0
 10
326.273609
 20
218.637916
 30
0.0
 10
326.583010
 20
218.816548
 30
0.0
  0
SPLINE
  5
16c
100
AcDbEntity
  8
Layer_1
 62
7
100
AcDbSpline
 70
8
 71
3
 72
8
 73
4
 74
0
 40
0
 40
0
 40
0
 40
0
 40
1
 40
1
 40
1
 40
1
 10
326.583010
 20
218.816548
 30
0.0
 10
326.892411
 20
218.995181
 30
0.0
 10
327.273609
 20
218.995181
 30
0.0
 10
327.583010
 20
218.816548
 30
0.0
  0
SPLINE
  5
16d
100
AcDbEntity
  8
Layer_1
 62
7
100
AcDbSpline
 70
8
 71
3
 72
8
 73
4
 74
0
 40
0
 40
0
 40
0
 40
0
 40
1
 40
1
 40
1
 40
1
 10
327.583010
 20
218.816548
 30
0.0
 10
327.892411
 20
218.637916
 30
0.0
 10
328.083010
 20
218.307789
 30
0.0
 10
328.083010
 20
217.950523
 30
0.0
  0
LWPOLYLINE
  5
16e
100
AcDbEntity
  8
Layer_1
 62
7
100
AcDbPolyline
 90
1
 70
1
 10
332.083500
 20
217.950523
 30
0.0
  0
SPLINE
  5
16f
100
AcDbEntity
  8
Layer_1
 62
7
100
AcDbSpline
 70
8
 71
3
 72
8
 73
4
 74
0
 40
0
 40
0
 40
0
 40
0
 40
1
 40
1
 40
1
 40
1
 10
367.030550
 20
230.620193
 30
0.0
 10
367.030550
 20
230.262927
 30
0.0
 10
366.839951
 20
229.932800
 30
0.0
 10
366.530550
 20
229.754168
 30
0.0
  0
SPLINE
  5
170
100
AcDbEntity
  8
Layer_1
 62
7
100
AcDbSpline
 70
8
 71
3
 72
8
 73
4
 74
0
 40
0
 40
0
 40
0
 40
0
 40
1
 40
1
 40
1
 40
1
 10
366.530550
 20
229.754168
 30
0.0
 10
366.221149
 20
229.575535
 30
0.0
 10
365.839951
 20
229.575535
 30
0.0
 10
365.530550
 20
229.754168
 30
0.0
  0
SPLINE
  5
171
100
AcDbEntity
  8
Layer_1
 62
7
100
AcDbSpline
 70
8
 71
3
 72
8
 73
4
 74
0
 40
0
 40
0
 40
0
 40
0
 40
1
 40
1
 40
1
 40
1
 10
365.530550
 20
229.754168
 30
0.0
 10
365.221149
 20
229.932800
 30
0.0
 10
365.030550
 20
230.262927
 30
0.0
 10
365.030550
 20
230.620193
 30
0.0
  0
SPLINE
  5
172
100
AcDbEntity
  8
Layer_1
 62
7
100
AcDbSpline
 70
8
 71
3
 72
8
 73
4
 74
0
 40
0
 40
0
 40
0
 40
0
 40
1
 40
1
 40
1
 40
1
 10
365.030550
 20
230.620193
 30
0.0
 10
365.030550
 20
230.977459
 30
0.0
 10
365.221149
 20
231.307586
 30
0.0
 10
365.530550
 20
231.486218
 30
0.0
  0
SPLINE
  5
173
100
AcDbEntity
  8
Layer_1
 62
7
100
AcDbSpline
 70
8
 71
3
 72
8
 73
4
 74
0
 40
0
 40
0
 40
0
 40
0
 40
1
 40
1
 40
1
 40
1
 10
365.530550
 20
231.486218
 30
0.0
 10
365.839951
 20
231.664851
 30
0.0
 10
366.221149
 20
231.664851
 30
0.0
 10
366.530550
 20
231.486218
 30
0.0
  0
SPLINE
  5
174
100
AcDbEntity
  8
Layer_1
 62
7
100
AcDbSpline
 70
8
 71
3
 72
8
 73
4
 74
0
 40
0
 40
0
 40
0
 40
0
 40
1
 40
1
 40
1
 40
1
 10
366.530550
 20
231.486218
 30
0.0
 10
366.839951
 20
231.307586
 30
0.0
 10
367.030550
 20
230.977459
 30
0.0
 10
367.030550
 20
230.620193
 30
0.0
  0
LWPOLYLINE
  5
175
100
AcDbEntity
  8
Layer_1
 62
7
100
AcDbPolyline
 90
1
 70
1
 10
328.083010
 20
217.950523
 30
0.0
  0
SPLINE
  5
176
100
AcDbEntity
  8
Layer_1
 62
7
100
AcDbSpline
 70
8
 71
3
 72
8
 73
4
 74
0
 40
0
 40
0
 40
0
 40
0
 40
1
 40
1
 40
1
 40
1
 10
371.082890
 20
230.624908
 30
0.0
 10
371.082890
 20
230.267642
 30
0.0
 10
370.892291
 20
229.937515
 30
0.0
 10
370.582890
 20
229.758883
 30
0.0
  0
SPLINE
  5
177
100
AcDbEntity
  8
Layer_1
 62
7
100
AcDbSpline
 70
8
 71
3
 72
8
 73
4
 74
0
 40
0
 40
0
 40
0
 40
0
 40
1
 40
1
 40
1
 40
1
 10
370.582890
 20
229.758883
 30
0.0
 10
370.273489
 20
229.580250
 30
0.0
 10
369.892291
 20
229.580250
 30
0.0
 10
369.582890
 20
229.758883
 30
0.0
  0
SPLINE
  5
178
100
AcDbEntity
  8
Layer_1
 62
7
100
AcDbSpline
 70
8
 71
3
 72
8
 73
4
 74
0
 40
0
 40
0
 40
0
 40
0
 40
1
 40
1
 40
1
 40
1
 10
369.582890
 20
229.758883
 30
0.0
 10
369.273489
 20
229.937515
 30
0.0
 10
369.082890
 20
230.267642
 30
0.0
 10
369.082890
 20
230.624908
 30
0.0
  0
SPLINE
  5
179
100
AcDbEntity
  8
Layer_1
 62
7
100
AcDbSpline
 70
8
 71
3
 72
8
 73
4
 74
0
 40
0
 40
0
 40
0
 40
0
 40
1
 40
1
 40
1
 40
1
 10
369.082890
 20
230.624908
 30
0.0
 10
369.082890
 20
230.982174
 30
0.0
 10
369.273489
 20
231.312301
 30
0.0
 10
369.582890
 20
231.490933
 30
0.0
  0
SPLINE
  5
17a
100
AcDbEntity
  8
Layer_1
 62
7
100
AcDbSpline
 70
8
 71
3
 72
8
 73
4
 74
0
 40
0
 40
0
 40
0
 40
0
 40
1
 40
1
 40
1
 40
1
 10
369.582890
 20
231.490933
 30
0.0
 10
369.892291
 20
231.669566
 30
0.0
 10
370.273489
 20
231.669566
 30
0.0
 10
370.582890
 20
231.490933
 30
0.0
  0
SPLINE
  5
17b
100
AcDbEntity
  8
Layer_1
 62
7
100
AcDbSpline
 70
8
 71
3
 72
8
 73
4
 74
0
 40
0
 40
0
 40
0
 40
0
 40
1
 40
1
 40
1
 40
1
 10
370.582890
 20
231.490933
 30
0.0
 10
370.892291
 20
231.312301
 30
0.0
 10
371.082890
 20
230.982174
 30
0.0
 10
371.082890
 20
230.624908
 30
0.0
  0
LWPOLYLINE
  5
17c
100
AcDbEntity
  8
Layer_1
 62
7
100
AcDbPolyline
 90
1
 70
1
 10
367.030550
 20
230.620193
 30
0.0
  0
SPLINE
  5
17d
100
AcDbEntity
  8
Layer_1
 62
7
100
AcDbSpline
 70
8
 71
3
 72
8
 73
4
 74
0
 40
0
 40
0
 40
0
 40
0
 40
1
 40
1
 40
1
 40
1
 10
371.092010
 20
217.958305
 30
0.0
 10
371.092010
 20
217.601039
 30
0.0
 10
370.901411
 20
217.270912
 30
0.0
 10
370.592010
 20
217.092280
 30
0.0
  0
SPLINE
  5
17e
100
AcDbEntity
  8
Layer_1
 62
7
100
AcDbSpline
 70
8
 71
3
 72
8
 73
4
 74
0
 40
0
 40
0
 40
0
 40
0
 40
1
 40
1
 40
1
 40
1
 10
370.592010
 20
217.092280
 30
0.0
 10
370.282609
 20
216.913647
 30
0.0
 10
369.901411
 20
216.913647
 30
0.0
 10
369.592010
 20
217.092280
 30
0.0
  0
SPLINE
  5
17f
100
AcDbEntity
  8
Layer_1
 62
7
100
AcDbSpline
 70
8
 71
3
 72
8
 73
4
 74
0
 40
0
 40
0
 40
0
 40
0
 40
1
 40
1
 40
1
 40
1
 10
369.592010
 20
217.092280
 30
0.0
 10
369.282609
 20
217.270912
 30
0.0
 10
369.092010
 20
217.601039
 30
0.0
 10
369.092010
 20
217.958305
 30
0.0
  0
SPLINE
  5
180
100
AcDbEntity
  8
Layer_1
 62
7
100
AcDbSpline
 70
8
 71
3
 72
8
 73
4
 74
0
 40
0
 40
0
 40
0
 40
0
 40
1
 40
1
 40
1
 40
1
 10
369.092010
 20
217.958305
 30
0.0
 10
369.092010
 20
218.315571
 30
0.0
 10
369.282609
 20
218.645698
 30
0.0
 10
369.592010
 20
218.824330
 30
0.0
  0
SPLINE
  5
181
100
AcDbEntity
  8
Layer_1
 62
7
100
AcDbSpline
 70
8
 71
3
 72
8
 73
4
 74
0
 40
0
 40
0
 40
0
 40
0
 40
1
 40
1
 40
1
 40
1
 10
369.592010
 20
218.824330
 30
0.0
 10
369.901411
 20
219.002963
 30
0.0
 10
370.282609
 20
219.002963
 30
0.0
 10
370.592010
 20
218.824330
 30
0.0
  0
SPLINE
  5
182
100
AcDbEntity
  8
Layer_1
 62
7
100
AcDbSpline
 70
8
 71
3
 72
8
 73
4
 74
0
 40
0
 40
0
 40
0
 40
0
 40
1
 40
1
 40
1
 40
1
 10
370.592010
 20
218.824330
 30
0.0
 10
370.901411
 20
218.645698
 30
0.0
 10
371.092010
 20
218.315571
 30
0.0
 10
371.092010
 20
217.958305
 30
0.0
  0
LWPOLYLINE
  5
183
100
AcDbEntity
  8
Layer_1
 62
7
100
AcDbPolyline
 90
1
 70
1
 10
371.082890
 20
230.624908
 30
0.0
  0
SPLINE
  5
184
100
AcDbEntity
  8
Layer_1
 62
7
100
AcDbSpline
 70
8
 71
3
 72
8
 73
4
 74
0
 40
0
 40
0
 40
0
 40
0
 40
1
 40
1
 40
1
 40
1
 10
367.092010
 20
217.958305
 30
0.0
 10
367.092010
 20
217.601039
 30
0.0
 10
366.901411
 20
217.270912
 30
0.0
 10
366.592010
 20
217.092280
 30
0.0
  0
SPLINE
  5
185
100
AcDbEntity
  8
Layer_1
 62
7
100
AcDbSpline
 70
8
 71
3
 72
8
 73
4
 74
0
 40
0
 40
0
 40
0
 40
0
 40
1
 40
1
 40
1
 40
1
 10
366.592010
 20
217.092280
 30
0.0
 10
366.282609
 20
216.913647
 30
0.0
 10
365.901411
 20
216.913647
 30
0.0
 10
365.592010
 20
217.092280
 30
0.0
  0
SPLINE
  5
186
100
AcDbEntity
  8
Layer_1
 62
7
100
AcDbSpline
 70
8
 71
3
 72
8
 73
4
 74
0
 40
0
 40
0
 40
0
 40
0
 40
1
 40
1
 40
1
 40
1
 10
365.592010
 20
217.092280
 30
0.0
 10
365.282609
 20
217.270912
 30
0.0
 10
365.092010
 20
217.601039
 30
0.0
 10
365.092010
 20
217.958305
 30
0.0
  0
SPLINE
  5
187
100
AcDbEntity
  8
Layer_1
 62
7
100
AcDbSpline
 70
8
 71
3
 72
8
 73
4
 74
0
 40
0
 40
0
 40
0
 40
0
 40
1
 40
1
 40
1
 40
1
 10
365.092010
 20
217.958305
 30
0.0
 10
365.092010
 20
218.315571
 30
0.0
 10
365.282609
 20
218.645698
 30
0.0
 10
365.592010
 20
218.824330
 30
0.0
  0
SPLINE
  5
188
100
AcDbEntity
  8
Layer_1
 62
7
100
AcDbSpline
 70
8
 71
3
 72
8
 73
4
 74
0
 40
0
 40
0
 40
0
 40
0
 40
1
 40
1
 40
1
 40
1
 10
365.592010
 20
218.824330
 30
0.0
 10
365.901411
 20
219.002963
 30
0.0
 10
366.282609
 20
219.002963
 30
0.0
 10
366.592010
 20
218.824330
 30
0.0
  0
SPLINE
  5
189
100
AcDbEntity
  8
Layer_1
 62
7
100
AcDbSpline
 70
8
 71
3
 72
8
 73
4
 74
0
 40
0
 40
0
 40
0
 40
0
 40
1
 40
1
 40
1
 40
1
 10
366.592010
 20
218.824330
 30
0.0
 10
366.901411
 20
218.645698
 30
0.0
 10
367.092010
 20
218.315571
 30
0.0
 10
367.092010
 20
217.958305
 30
0.0
  0
LWPOLYLINE
  5
18a
100
AcDbEntity
  8
Layer_1
 62
7
100
AcDbPolyline
 90
1
 70
1
 10
371.092010
 20
217.958305
 30
0.0
  0
LWPOLYLINE
  5
18b
100
AcDbEntity
  8
Layer_1
 62
7
100
AcDbPolyline
 90
1
 70
1
 10
367.092010
 20
217.958305
 30
0.0
  0
LWPOLYLINE
  5
18c
100
AcDbEntity
  8
Layer_1
 62
7
100
AcDbPolyline
 90
4
 70
1
 10
334.512970
 20
137.707550
 30
0.0
 10
342.512970
 20
137.707550
 30
0.0
 10
342.512970
 20
132.707550
 30
0.0
 10
334.512970
 20
132.707550
 30
0.0
  0
ENDSEC
  0
SECTION
  2
OBJECTS
  0
DICTIONARY
  5
C
330
0
100
AcDbDictionary
  3
ACAD_GROUP
350
D
  3
ACAD_MLINESTYLE
350
17
  0
DICTIONARY
  5
D
330
C
100
AcDbDictionary
  0
DICTIONARY
  5
1A
330
C
100
AcDbDictionary
  0
DICTIONARY
  5
17
330
C
100
AcDbDictionary
  3
STANDARD
350
18
  0
DICTIONARY
  5
19
330
C
100
AcDbDictionary
  0
ENDSEC
  0
EOF
