<?xml version="1.0" encoding="UTF-8" standalone="no"?>
<!-- Created with Inkscape (http://www.inkscape.org/) -->

<svg
   xmlns:dc="http://purl.org/dc/elements/1.1/"
   xmlns:cc="http://creativecommons.org/ns#"
   xmlns:rdf="http://www.w3.org/1999/02/22-rdf-syntax-ns#"
   xmlns:svg="http://www.w3.org/2000/svg"
   xmlns="http://www.w3.org/2000/svg"
   xmlns:sodipodi="http://sodipodi.sourceforge.net/DTD/sodipodi-0.dtd"
   xmlns:inkscape="http://www.inkscape.org/namespaces/inkscape"
   width="210mm"
   height="297mm"
   viewBox="0 0 210 297"
   version="1.1"
   id="svg8"
   inkscape:version="0.92.4 (5da689c313, 2019-01-14)"
   sodipodi:docname="часы.svg">
  <defs
     id="defs2" />
  <sodipodi:namedview
     id="base"
     pagecolor="#ffffff"
     bordercolor="#666666"
     borderopacity="1.0"
     inkscape:pageopacity="0.0"
     inkscape:pageshadow="2"
     inkscape:zoom="0.98994949"
     inkscape:cx="1044.8763"
     inkscape:cy="717.73121"
     inkscape:document-units="mm"
     inkscape:current-layer="layer1"
     showgrid="false"
     inkscape:snap-bbox="true"
     inkscape:bbox-nodes="true"
     inkscape:snap-bbox-edge-midpoints="true"
     inkscape:snap-bbox-midpoints="true"
     showguides="true"
     inkscape:guide-bbox="true"
     inkscape:window-width="1920"
     inkscape:window-height="1001"
     inkscape:window-x="-9"
     inkscape:window-y="-9"
     inkscape:window-maximized="1">
    <sodipodi:guide
       position="161.43113,264.82631"
       orientation="1,0"
       id="guide1039"
       inkscape:locked="false" />
  </sodipodi:namedview>
  <metadata
     id="metadata5">
    <rdf:RDF>
      <cc:Work
         rdf:about="">
        <dc:format>image/svg+xml</dc:format>
        <dc:type
           rdf:resource="http://purl.org/dc/dcmitype/StillImage" />
        <dc:title></dc:title>
      </cc:Work>
    </rdf:RDF>
  </metadata>
  <g
     inkscape:label="Layer 1"
     inkscape:groupmode="layer"
     id="layer1">
    <rect
       style="fill:#00ff00;stroke-width:0.36256775"
       id="rect815"
       width="80"
       height="60"
       x="21.166666"
       y="28.357147" />
    <rect
       style="fill:#008000;stroke-width:0.26457512"
       id="rect819"
       width="10"
       height="3"
       x="31.166332"
       y="88.357147" />
    <rect
       style="fill:#008000;stroke-width:0.26457512"
       id="rect819-6"
       width="10"
       height="3"
       x="51.166664"
       y="88.357147" />
    <rect
       style="fill:#008000;stroke-width:0.26457512"
       id="rect819-3"
       width="10"
       height="3"
       x="91.166664"
       y="88.357147" />
    <rect
       style="fill:#008000;stroke-width:0.26457512"
       id="rect819-1"
       width="10"
       height="3"
       x="71.166664"
       y="88.357147" />
    <rect
       style="fill:#008000;stroke-width:0.26457512"
       id="rect819-3-5"
       width="10"
       height="3"
       x="21.166332"
       y="25.357147" />
    <rect
       style="fill:#008000;stroke-width:0.26457512"
       id="rect819-3-3"
       width="10"
       height="3"
       x="41.166664"
       y="25.357147" />
    <rect
       style="fill:#008000;stroke-width:0.26457512"
       id="rect819-3-0"
       width="10"
       height="3"
       x="61.166664"
       y="25.357147" />
    <rect
       style="fill:#008000;stroke-width:0.26457512"
       id="rect819-3-4"
       width="10"
       height="3"
       x="81.166664"
       y="25.357147" />
    <rect
       style="fill:#008000;stroke-width:0.26457512"
       id="rect819-3-2"
       width="10"
       height="3"
       x="-38.357296"
       y="101.16666"
       transform="rotate(-90)" />
    <rect
       style="fill:#008000;stroke-width:0.26457512"
       id="rect819-3-2-8"
       width="10"
       height="3"
       x="-58.357147"
       y="101.16666"
       transform="rotate(-90)" />
    <rect
       style="fill:#008000;stroke-width:0.26457512"
       id="rect819-3-2-2"
       width="10"
       height="3"
       x="-78.357147"
       y="101.16666"
       transform="rotate(-90)" />
    <rect
       style="fill:#008000;stroke-width:0.26457512"
       id="rect819-3-2-6"
       width="10"
       height="3"
       x="-48.357296"
       y="18.166666"
       transform="rotate(-90)" />
    <rect
       style="fill:#008000;stroke-width:0.26457512"
       id="rect819-3-2-8-3"
       width="10"
       height="3"
       x="-68.357147"
       y="18.166666"
       transform="rotate(-90)" />
    <rect
       style="fill:#008000;stroke-width:0.26457512"
       id="rect819-3-2-2-0"
       width="10"
       height="3"
       x="-88.357147"
       y="18.166666"
       transform="rotate(-90)" />
    <rect
       style="fill:#00ff00;stroke-width:0.36256772"
       id="rect815-1"
       width="80"
       height="60"
       x="121.4308"
       y="35.17371" />
    <rect
       style="fill:#008000;stroke-width:0.26457512"
       id="rect819-67"
       width="10"
       height="3"
       x="131.43047"
       y="95.173706" />
    <rect
       style="fill:#008000;stroke-width:0.26457512"
       id="rect819-6-0"
       width="10"
       height="3"
       x="151.4308"
       y="95.173706" />
    <rect
       style="fill:#008000;stroke-width:0.26457512"
       id="rect819-3-1"
       width="10"
       height="3"
       x="191.4308"
       y="95.173706" />
    <rect
       style="fill:#008000;stroke-width:0.26457512"
       id="rect819-1-5"
       width="10"
       height="3"
       x="171.4308"
       y="95.173706" />
    <rect
       style="fill:#008000;stroke-width:0.26457512"
       id="rect819-3-5-2"
       width="10"
       height="3"
       x="121.43047"
       y="32.17371" />
    <rect
       style="fill:#008000;stroke-width:0.26457512"
       id="rect819-3-3-6"
       width="10"
       height="3"
       x="141.4308"
       y="32.17371" />
    <rect
       style="fill:#008000;stroke-width:0.26457512"
       id="rect819-3-0-1"
       width="10"
       height="3"
       x="161.4308"
       y="32.17371" />
    <rect
       style="fill:#008000;stroke-width:0.26457512"
       id="rect819-3-4-9"
       width="10"
       height="3"
       x="181.4308"
       y="32.17371" />
    <rect
       style="fill:#008000;stroke-width:0.26457512"
       id="rect819-3-2-7"
       width="10"
       height="3"
       x="-45.17371"
       y="201.4308"
       transform="rotate(-90)" />
    <rect
       style="fill:#008000;stroke-width:0.26457512"
       id="rect819-3-2-8-9"
       width="10"
       height="3"
       x="-65.173561"
       y="201.4308"
       transform="rotate(-90)" />
    <rect
       style="fill:#008000;stroke-width:0.26457512"
       id="rect819-3-2-2-2"
       width="10"
       height="3"
       x="-85.173569"
       y="201.4308"
       transform="rotate(-90)" />
    <rect
       style="fill:#008000;stroke-width:0.26457512"
       id="rect819-3-2-6-8"
       width="10"
       height="3"
       x="-55.173851"
       y="118.4308"
       transform="rotate(-90)" />
    <rect
       style="fill:#008000;stroke-width:0.26457512"
       id="rect819-3-2-8-3-5"
       width="10"
       height="3"
       x="-75.173706"
       y="118.4308"
       transform="rotate(-90)" />
    <rect
       style="fill:#008000;stroke-width:0.26457512"
       id="rect819-3-2-2-0-7"
       width="10"
       height="3"
       x="-95.173706"
       y="118.4308"
       transform="rotate(-90)" />
    <rect
       style="fill:#000000;stroke-width:0.26458332"
       id="rect992"
       width="27"
       height="15"
       x="147.93114"
       y="47.173996" />
    <rect
       style="fill:#000000;stroke-width:0.26458332"
       id="rect994"
       width="12"
       height="12"
       x="135.93114"
       y="67.174004" />
    <rect
       style="fill:#000000;stroke-width:0.26458332"
       id="rect994-4"
       width="12"
       height="12"
       x="174.93114"
       y="67.174004" />
    <rect
       style="fill:#00ff00;stroke-width:0.26458332"
       id="rect1043"
       width="80"
       height="30"
       x="35.546848"
       y="110.44586" />
    <rect
       style="fill:#008000;stroke-width:0.26457512"
       id="rect819-8"
       width="10"
       height="3"
       x="35.546509"
       y="107.44586" />
    <rect
       style="fill:#008000;stroke-width:0.26457512"
       id="rect819-6-1"
       width="10"
       height="3"
       x="55.546844"
       y="107.44586" />
    <rect
       style="fill:#008000;stroke-width:0.26457512"
       id="rect819-3-26"
       width="10"
       height="3"
       x="95.546844"
       y="107.44586" />
    <rect
       style="fill:#008000;stroke-width:0.26457512"
       id="rect819-1-9"
       width="10"
       height="3"
       x="75.546844"
       y="107.44586" />
    <rect
       style="fill:#008000;stroke-width:0.26457512"
       id="rect819-3-2-2-0-7-6"
       width="10"
       height="3"
       x="-120.44586"
       y="115.54685"
       transform="rotate(-90)" />
    <rect
       style="fill:#008000;stroke-width:0.26457512"
       id="rect819-3-2-2-0-7-7"
       width="10"
       height="3"
       x="-140.446"
       y="115.54685"
       transform="rotate(-90)" />
    <rect
       style="fill:#008000;stroke-width:0.26457512"
       id="rect819-8-1"
       width="10"
       height="3"
       x="45.546516"
       y="140.44586" />
    <rect
       style="fill:#008000;stroke-width:0.26457512"
       id="rect819-6-1-8"
       width="10"
       height="3"
       x="65.546844"
       y="140.44586" />
    <rect
       style="fill:#008000;stroke-width:0.26457512"
       id="rect819-3-26-3"
       width="10"
       height="3"
       x="105.54684"
       y="140.44586" />
    <rect
       style="fill:#008000;stroke-width:0.26457512"
       id="rect819-1-9-8"
       width="10"
       height="3"
       x="85.546844"
       y="140.44586" />
    <rect
       style="fill:#008000;stroke-width:0.26457512"
       id="rect819-3-2-2-0-7-6-4"
       width="10"
       height="3"
       x="-130.44586"
       y="32.546848"
       transform="rotate(-90)" />
    <rect
       style="fill:#00ff00;stroke-width:0.26458332"
       id="rect1043-1"
       width="80"
       height="30.000002"
       x="126.43114"
       y="109.87843" />
    <rect
       style="fill:#008000;stroke-width:0.26457512"
       id="rect819-8-15"
       width="10"
       height="3"
       x="126.4308"
       y="106.87843" />
    <rect
       style="fill:#008000;stroke-width:0.26457512"
       id="rect819-6-1-0"
       width="10"
       height="3"
       x="146.43114"
       y="106.87843" />
    <rect
       style="fill:#008000;stroke-width:0.26457512"
       id="rect819-3-26-9"
       width="10"
       height="3"
       x="186.43114"
       y="106.87843" />
    <rect
       style="fill:#008000;stroke-width:0.26457512"
       id="rect819-1-9-5"
       width="10"
       height="3"
       x="166.43114"
       y="106.87843" />
    <rect
       style="fill:#008000;stroke-width:0.26457512"
       id="rect819-3-2-2-0-7-6-7"
       width="10"
       height="3"
       x="-119.87843"
       y="206.43115"
       transform="rotate(-90)" />
    <rect
       style="fill:#008000;stroke-width:0.26457512"
       id="rect819-3-2-2-0-7-7-4"
       width="10"
       height="3"
       x="-139.87856"
       y="206.43115"
       transform="rotate(-90)" />
    <rect
       style="fill:#008000;stroke-width:0.26457512"
       id="rect819-8-1-5"
       width="10"
       height="3"
       x="136.4308"
       y="139.87842" />
    <rect
       style="fill:#008000;stroke-width:0.26457512"
       id="rect819-6-1-8-0"
       width="10"
       height="3"
       x="156.43114"
       y="139.87842" />
    <rect
       style="fill:#008000;stroke-width:0.26457512"
       id="rect819-3-26-3-1"
       width="10"
       height="3"
       x="196.43112"
       y="139.87842" />
    <rect
       style="fill:#008000;stroke-width:0.26457512"
       id="rect819-1-9-8-8"
       width="10"
       height="3"
       x="176.43114"
       y="139.87842" />
    <rect
       style="fill:#008000;stroke-width:0.26457512"
       id="rect819-3-2-2-0-7-6-4-5"
       width="10"
       height="3"
       x="-129.87842"
       y="123.43114"
       transform="rotate(-90)" />
    <rect
       style="fill:#00ff00;stroke-width:0.22913587"
       id="rect1043-6"
       width="60"
       height="30.000002"
       x="99.931129"
       y="155" />
    <rect
       style="fill:#008000;stroke-width:0.26457512"
       id="rect819-6-1-4"
       width="10"
       height="3"
       x="99.931122"
       y="152" />
    <rect
       style="fill:#008000;stroke-width:0.26457512"
       id="rect819-3-26-94"
       width="10"
       height="3"
       x="139.93114"
       y="152" />
    <rect
       style="fill:#008000;stroke-width:0.26457512"
       id="rect819-1-9-4"
       width="10"
       height="3"
       x="119.93112"
       y="152" />
    <rect
       style="fill:#008000;stroke-width:0.26457512"
       id="rect819-3-2-2-0-7-6-5"
       width="10"
       height="3"
       x="-165"
       y="159.93114"
       transform="rotate(-90)" />
    <rect
       style="fill:#008000;stroke-width:0.26457512"
       id="rect819-3-2-2-0-7-7-3"
       width="10"
       height="3"
       x="-185.00014"
       y="159.93114"
       transform="rotate(-90)" />
    <rect
       style="fill:#008000;stroke-width:0.26457512"
       id="rect819-3-26-3-9"
       width="10"
       height="3"
       x="149.93112"
       y="185" />
    <rect
       style="fill:#008000;stroke-width:0.26457512"
       id="rect819-3-2-2-0-7-7-3-2"
       width="10"
       height="3"
       x="-175"
       y="96.931129"
       transform="rotate(-90)" />
    <rect
       style="fill:#008000;stroke-width:0.26457512"
       id="rect819-3-26-3-9-7"
       width="10"
       height="3"
       x="129.93077"
       y="185" />
    <rect
       style="fill:#008000;stroke-width:0.26457512"
       id="rect819-3-26-3-9-0"
       width="10"
       height="3"
       x="109.93078"
       y="185" />
    <rect
       style="fill:#00ff00;stroke-width:0.22913587"
       id="rect1043-6-8"
       width="60"
       height="30.000002"
       x="20.135654"
       y="154.11153" />
    <rect
       style="fill:#008000;stroke-width:0.26457512"
       id="rect819-6-1-4-8"
       width="10"
       height="3"
       x="20.135639"
       y="151.11153" />
    <rect
       style="fill:#008000;stroke-width:0.26457512"
       id="rect819-3-26-94-0"
       width="10"
       height="3"
       x="60.13567"
       y="151.11153" />
    <rect
       style="fill:#008000;stroke-width:0.26457512"
       id="rect819-1-9-4-0"
       width="10"
       height="3"
       x="40.135654"
       y="151.11153" />
    <rect
       style="fill:#008000;stroke-width:0.26457512"
       id="rect819-3-2-2-0-7-6-5-3"
       width="10"
       height="3"
       x="-164.11153"
       y="80.135674"
       transform="rotate(-90)" />
    <rect
       style="fill:#008000;stroke-width:0.26457512"
       id="rect819-3-2-2-0-7-7-3-7"
       width="10"
       height="3"
       x="-184.11166"
       y="80.135674"
       transform="rotate(-90)" />
    <rect
       style="fill:#008000;stroke-width:0.26457512"
       id="rect819-3-26-3-9-3"
       width="10"
       height="3"
       x="70.135651"
       y="184.11153" />
    <rect
       style="fill:#008000;stroke-width:0.26457512"
       id="rect819-3-2-2-0-7-7-3-2-2"
       width="10"
       height="3"
       x="-174.11153"
       y="17.135639"
       transform="rotate(-90)" />
    <rect
       style="fill:#008000;stroke-width:0.26457512"
       id="rect819-3-26-3-9-7-5"
       width="10"
       height="3"
       x="50.135303"
       y="184.11153" />
    <rect
       style="fill:#008000;stroke-width:0.26457512"
       id="rect819-3-26-3-9-0-0"
       width="10"
       height="3"
       x="30.135303"
       y="184.11153" />
    <path
       style="fill:#00ff00;stroke-width:0.26458332"
       d="m 222.51283,97.54184 v 2.99982 h 5.3e-4 v 9.9999 h -3.00035 v 9.99991 h 3.00035 v 10.00042 h 9.99937 v 2.99982 h 9.9999 v -2.99982 h 10.00043 v 2.99982 h 9.9999 v -2.99982 h 10.00043 v 2.99982 h 9.9999 v -2.99982 h 9.99993 v 2.99982 h 9.9999 v -2.99982 h 2.99982 v -9.9999 h -2.99982 v -10.00043 h 2.99982 v -9.9999 h -2.99982 -9.9999 v -2.99982 h -9.99993 v 2.99982 h -9.9999 v -2.99982 h -10.00043 v 2.99982 h -9.9999 v -2.99982 h -9.9999 v 2.99982 h -10.00043 v -2.99982 z"
       id="rect1043-9"
       inkscape:connector-curvature="0" />
    <path
       style="fill:#00ff00;stroke-width:0.26458332"
       d="m 308.51326,97.54184 v 2.99982 9.99991 h -2.99982 v 9.9999 h 2.99982 v 10.00043 h 9.9999 v 2.99981 h 9.9999 v -2.99981 h 10.00043 v 2.99981 h 9.9999 v -2.99981 h 9.99993 v 2.99981 h 10.0004 v -2.99981 h 9.99993 v 2.99981 h 9.9999 v -2.99981 h 2.99982 v -9.99991 h -2.99982 v -10.00042 h 2.99982 v -9.99991 h -2.99982 -9.9999 v -2.99982 h -9.99993 v 2.99982 h -10.0004 v -2.99982 h -9.99993 v 2.99982 h -9.9999 v -2.99982 h -9.9999 v 2.99982 h -10.00043 v -2.99982 z"
       id="rect1043-1-4"
       inkscape:connector-curvature="0" />
    <path
       style="fill:#00ff00;stroke-width:0.22913587"
       d="m 308.51326,133.54171 v 3.00033 9.99991 h -3.00035 v 9.9999 h 3.00035 v 9.99991 h 9.99937 v 2.99982 h 10.00043 v -2.99982 h 9.9999 v 2.99982 h 9.9999 v -2.99982 h 10.00043 v 2.99982 h 9.9999 v -2.99982 h 2.99982 v -9.99991 h -2.99982 v -9.9999 h 2.99982 v -9.99991 h -2.99982 -9.9999 v -3.00033 h -9.9999 v 3.00033 h -10.00043 v -3.00033 h -9.9999 v 3.00033 h -9.9999 v -3.00033 z"
       id="rect1043-6-6"
       inkscape:connector-curvature="0" />
    <path
       style="fill:#00ff00;stroke-width:0.22913587"
       d="m 242.51263,133.54171 v 2.99982 9.99991 h -2.99982 v 10.00042 h 2.99982 v 9.99991 h 9.9999 v 2.99981 h 9.99993 v -2.99981 h 9.9999 v 2.99981 h 9.9999 v -2.99981 h 10.00043 v 2.99981 h 9.9999 v -2.99981 h 3.00032 v -9.99991 h -3.00032 v -10.00042 h 3.00032 v -9.99991 h -3.00032 -9.9999 v -2.99982 h -9.9999 v 2.99982 h -9.99993 v -2.99982 h -10.0004 v 2.99982 h -9.99993 v -2.99982 z"
       id="rect1043-6-8-7"
       inkscape:connector-curvature="0" />
    <path
       style="fill:#00ff00;stroke-width:0.36256775"
       d="m 222.51281,31.541735 v 2.999816 h 5.1e-4 v 10.000425 h -3.00033 v 9.999906 h 3.00033 v 9.999905 h -3.00033 v 9.999906 h 3.00033 v 9.999906 h -3.00033 v 9.999908 h 3.00033 9.99939 v 3.000333 h 10.00043 v -3.000333 h 9.9999 v 3.000333 h 10.00042 v -3.000333 h 9.9999 v 3.000333 h 9.99993 v -3.000333 h 9.9999 v 3.000333 h 9.9999 v -3.000333 -9.999908 h 3.00035 v -9.999906 h -3.00035 v -9.999906 h 3.00035 v -9.999905 h -3.00035 v -9.999906 h 3.00035 v -9.999909 h -3.00035 v -5.16e-4 h -9.9999 v -2.999816 h -9.9999 v 2.999816 h -9.99993 v -2.999816 h -10.0004 v 2.999816 h -9.99992 v -2.999816 h -9.9999 v 2.999816 h -10.00043 v -2.999816 z"
       id="rect815-16"
       inkscape:connector-curvature="0" />
    <path
       style="fill:#00ff00;stroke-width:0.36256772"
       d="m 308.51276,31.541736 v 3.000332 h 5.3e-4 v 9.999909 h -2.99982 v 9.999906 h 2.99982 v 9.999905 h -2.99982 v 9.999906 h 2.99982 V 84.5416 h -2.99982 v 10.00042 h 2.99982 9.9999 v 2.99982 h 9.9999 v -2.99982 h 10.00043 v 2.99982 h 9.9999 v -2.99982 h 9.9999 v 2.99982 h 9.9999 v -2.99982 h 9.99993 v 2.99982 h 9.9999 V 94.54202 84.5416 h 3.00032 v -9.999906 h -3.00032 v -9.999906 h 3.00032 v -9.999905 h -3.00032 v -9.999906 h 3.00032 v -9.999909 h -3.00032 -9.9999 v -3.000332 h -9.99993 v 3.000332 h -9.9999 v -3.000332 h -9.9999 v 3.000332 h -9.9999 v -3.000332 h -10.00043 v 3.000332 h -9.9999 v -3.000332 z"
       id="rect815-1-5"
       inkscape:connector-curvature="0" />
    <rect
       style="fill:#000000;stroke-width:0.26458332"
       id="rect992-8"
       width="27.000002"
       height="15"
       x="335.01382"
       y="46.542133" />
    <circle
       style="fill:#ff0000;stroke-width:0.18877596"
       id="path1700"
       cx="331.01401"
       cy="66.542137"
       r="1" />
    <circle
       style="fill:#ff0000;stroke-width:0.18877596"
       id="path1700-4"
       cx="327.01401"
       cy="66.542137"
       r="1" />
    <circle
       style="fill:#ff0000;stroke-width:0.18877596"
       id="path1700-6"
       cx="331.0835"
       cy="79.049477"
       r="1" />
    <circle
       style="fill:#ff0000;stroke-width:0.18877596"
       id="path1700-6-8"
       cx="327.08301"
       cy="79.049477"
       r="1" />
    <circle
       style="fill:#ff0000;stroke-width:0.18877596"
       id="path1700-6-1"
       cx="366.03055"
       cy="66.379807"
       r="1" />
    <circle
       style="fill:#ff0000;stroke-width:0.18877596"
       id="path1700-6-5"
       cx="370.08289"
       cy="66.375092"
       r="1" />
    <circle
       style="fill:#ff0000;stroke-width:0.18877596"
       id="path1700-6-0"
       cx="370.09201"
       cy="79.041695"
       r="1" />
    <circle
       style="fill:#ff0000;stroke-width:0.18877596"
       id="path1700-6-6"
       cx="366.09201"
       cy="79.041695"
       r="1" />
    <rect
       style="fill:#000000;stroke-width:0.06831512"
       id="rect1856"
       width="8"
       height="5"
       x="334.51297"
       y="159.29245" />
  </g>
</svg>
